<svg version="1.2" xmlns="http://www.w3.org/2000/svg" viewBox="0 0 256 86" width="256" height="86">
	<title>archlinux-logo-text-dark</title>
	<style>
		.s0 { fill: #ffffff } 
		.s1 { fill: #1793d1 } 
	</style>
	<g>
		<path fill-rule="evenodd" class="s0" d="m96.3 39.1v14.8l-5.4 0.9v-1c1.1-1.2 2.2-2.8 3.4-5-1.3 1.5-2.7 2.8-3.9 4-0.9 0.7-2.6 2-6.2 2.1-3.9-0.1-9.8-2.3-9.7-10 0-6.8 6.4-8.5 10.9-8.4 3.6 0.1 4.7 1.9 4.6 1.8 0.1-1.9-0.3-3.4-4.4-3.5-2.5-0.1-8.2 1.4-8.2 1.4l1.2-6.1c1.1-0.4 3.9-1.1 7.4-1.1 11.5 0 10.3 8 10.3 10.1zm-15.9 6.4c0 2.3 2.6 3.9 4.6 3.9 2 0 5.1-1.3 5-3.7 0-2.7-2.5-3.8-4.8-3.8-2.3-0.1-4.8 1.4-4.8 3.6z"/>
		<path fill-rule="evenodd" class="s0" d="m99.9 30.4v24.4l6.3-1.2v-13.9c0-2 3-4.4 6.7-4.4 0.8-1.4 2.2-5.1 2.6-5.9-8.3 0-8.4 2.4-9.8 3.6 0-2.3 0-3.6 0-3.6z"/>
		<path fill-rule="evenodd" class="s0" d="m135.6 33.6c-0.1-0.1-3.3-3.8-9.9-3.9-6.1-0.1-12.9 2.3-13 12.5 0 9.1 6.6 12.6 13.1 12.6 7 0.1 9.7-4.3 9.9-4.4-0.8-0.8-3.9-3.8-3.9-3.8 0 0-2 2.7-5.8 2.8-3.8 0-7-3-7.1-7.1 0-4.1 3-6.3 7.2-6.5 3.5 0 5.6 2.3 5.6 2.3z"/>
		<path fill-rule="evenodd" class="s0" d="m143.6 21.8l-6 1.4v31.9l5.9-1.1 0.1-15c0-1.6 2.2-4 6-3.9 3.6 0 4.4 2.4 4.4 2.7l0.1 17.4 5.9-1.1v-18.4c0-1.7-3.9-5.5-10.2-5.5-3 0-4.7 0.7-5.5 1.2-1.4 1.1-3.1 2.2-4.7 3.5 1.5-1.9 2.7-3.2 4-4.2z"/>
		<path fill-rule="evenodd" class="s1" d="m216.4 34.2l2.3-1v23l-2.2 0.5zm-0.6-8.3l1.9-1.6 1.6 1.8-1.9 1.6z"/>
		<path fill-rule="evenodd" class="s1" d="m191.2 33.8l2.7-0.6v4.9c0 0.2 1.5-5.4 8.6-5.3 6.9 0 8.1 5.4 8 6.6l0.1 17-2.3 0.5-0.1-16.8c0.1-0.5-1-4.6-5.9-4.6-4.9 0-8.3 3.6-8.3 5.8v14.8l-2.7 0.7z"/>
		<path fill-rule="evenodd" class="s1" d="m185.2 55.5l-2.7 0.5-0.1-4.8c0-0.2-1.4 5.4-8.6 5.3-6.9-0.1-8-5.4-8-6.6l-0.1-17 2.9-0.6v16.8c0 0.4 0.6 4.7 5.5 4.7 4.9 0 8.3-3 8.3-7.4v-13.2l2.7-0.7z"/>
		<path fill-rule="evenodd" class="s1" d="m227.4 31.6l-1.8 1.5 7.2 9.5-7.7 10.9 2 1.5 7.3-10.2 7.5 10.5 1.8-1.5-8-11.2 6.4-9-2-1.6-5.8 8.3z"/>
		<path fill-rule="evenodd" class="s1" d="m45.1 7.1c-3.1 7.7-5 12.8-8.5 20.3 2.1 2.3 4.8 4.9 9.1 7.9-4.6-1.9-7.8-3.8-10.2-5.7-4.4 9.3-11.5 22.7-25.8 48.4 11.2-6.5 20-10.5 28.1-12-0.4-1.5-0.6-3.1-0.6-4.8l0.1-0.4c0.1-7.2 3.9-12.7 8.3-12.3 4.4 0.3 7.9 6.5 7.7 13.7q0 2-0.4 3.8c8 1.6 16.6 5.6 27.7 12-2.2-4-4.1-7.7-6-11.1-2.9-2.3-6-5.2-12.2-8.4 4.3 1.1 7.3 2.4 9.7 3.8-18.9-35.3-20.5-40-27-55.2z"/>
		<path class="s0" d="m247.3 53.1l-0.1-2h-0.7v-0.3h1.8v0.3h-0.7v2c0 0-0.3 0-0.4 0z"/>
		<path class="s0" d="m248.6 53.1v-2.3h0.4l0.6 1.6q0.1 0.2 0.1 0.3 0-0.1 0.1-0.3l0.6-1.6h0.4v2.3h-0.3v-1.9l-0.7 1.9h-0.3l-0.6-2v2c0 0-0.3 0-0.3 0z"/>
		<path class="s0" d="m80.9 71.7v-2h-0.7v-0.2h1.8v0.2h-0.8v2z"/>
		<path class="s0" d="m82.3 71.7v-2.2h0.4l0.5 1.5q0.1 0.2 0.1 0.4 0.1-0.2 0.2-0.4l0.5-1.5h0.4v2.2h-0.3v-1.9l-0.6 1.9h-0.3l-0.6-1.9v1.9c0 0-0.3 0-0.3 0z"/>
	</g>
</svg>